<svg width="96" height="96" viewBox="0 0 96 96" fill="none" xmlns="http://www.w3.org/2000/svg">
  <defs>
    <linearGradient id="deepseek_bg" x1="14" y1="12" x2="82" y2="84" gradientUnits="userSpaceOnUse">
      <stop offset="0" stop-color="#F7FBFF" />
      <stop offset="1" stop-color="#DCE8FF" />
    </linearGradient>
    <linearGradient id="deepseek_mark" x1="28" y1="24" x2="68" y2="72" gradientUnits="userSpaceOnUse">
      <stop offset="0" stop-color="#7CC9FF" />
      <stop offset="0.52" stop-color="#4667FF" />
      <stop offset="1" stop-color="#38CFA2" />
    </linearGradient>
  </defs>

  <rect x="10" y="10" width="76" height="76" rx="22" fill="url(#deepseek_bg)" />
  <path
    d="M33 63.5C37.8 52.7 45.9 46.5 57.4 44.8C53.6 42.3 50.6 39.4 48.5 36.1C45.7 31.7 44.3 27.2 44.3 22.5C53 24.7 59.4 28.5 63.5 33.8C67.7 39.2 69.5 45.9 69 53.8V72.5H57V58.7C50.9 59.6 45.8 62.9 41.8 68.5L33 63.5Z"
    fill="url(#deepseek_mark)"
  />
  <path d="M30 74H69" stroke="#1E335E" stroke-opacity="0.12" stroke-width="4" stroke-linecap="round" />
</svg>
